<?xml version="1.0" encoding="UTF-8" standalone="no"?>
<svg
   id="svg1"
   width="650"
   height="250"
   viewBox="0 0 650 250"
   xmlns="http://www.w3.org/2000/svg">
  <defs
     id="defs1" />
  <g
     id="g1">
    <path
       style="display:inline;fill:currentColor"
       d="M 537.71194,225.6216 449.92389,212.4359 413.71194,181.26287 377.5,150.08983 l -0.78209,6.70509 c -0.43015,3.68779 -1.0156,8.99207 -1.30099,11.78727 l -0.5189,5.08219 -19.46581,5.81768 c -10.7062,3.19972 -19.75228,5.5312 -20.10241,5.18108 -0.35012,-0.35013 -0.0935,-4.51854 0.5702,-9.26314 0.66374,-4.7446 1.01319,-8.82014 0.77656,-9.05677 -0.23663,-0.23663 -9.45407,0.56594 -20.48322,1.78348 l -20.05299,2.21371 -8.40097,-3.24787 -8.40098,-3.24788 -16.1849,4.23824 c -13.01308,3.40766 -16.62277,4.02403 -18.4192,3.14519 -1.22887,-0.60118 -12.76815,-1.99984 -25.64286,-3.10812 -15.25816,-1.31346 -23.66861,-2.43582 -24.15541,-3.22349 -0.53073,-0.85873 -23.85225,9.07065 -80.59144,34.31264 -43.914524,19.53659 -80.049894,35.33897 -80.30082,35.1164 -0.250927,-0.22256 19.549073,-20.4455 44,-44.93987 L 122.5,144.85044 l -10.13558,6.07478 c -10.19022,6.10752 -12.706816,7.13445 -11.82371,4.82478 0.26287,-0.6875 2.20941,-7.82576 4.32566,-15.86281 l 3.84772,-14.6128 -12.857044,-9.84547 C 88.785671,110.01391 83,105.19142 83,104.71227 c 0,-0.47915 1.2375,-0.63105 2.75,-0.33755 1.5125,0.2935 7.7,0.81393 13.75,1.15652 6.05,0.34259 11.76687,0.83699 12.70415,1.09866 1.41355,0.39464 2.49291,-2.00581 6.32974,-14.077065 2.54408,-8.004059 4.92722,-14.543869 5.29586,-14.532912 0.36864,0.01096 3.57007,6.521321 7.11429,14.467473 3.54423,7.946154 6.9813,14.653714 7.63793,14.905684 0.65664,0.25198 5.87937,0.772 11.60606,1.15561 l 10.41216,0.69747 11.4499,-11.970996 L 183.5,85.304173 220.81634,65.051758 C 241.34032,53.91293 258.35008,45.016748 258.6158,45.282466 258.88152,45.548184 251.20167,56.640425 241.54946,69.93189 231.89726,83.223355 224,94.497198 224,94.984875 c 0,0.487677 3.375,3.943411 7.5,7.679405 4.125,3.736 7.5,7.55221 7.5,8.48047 0,1.47144 1.57003,1.73574 12.25,2.06217 10.47849,0.32028 24.25885,-0.68429 25.67835,-1.87191 0.23559,-0.19711 1.84359,-10.25312 3.57332,-22.346695 L 283.64664,67 h -2.1741 c -3.55657,0 -8.44496,-2.079957 -9.49365,-4.039442 -0.53839,-1.005991 -0.97592,-3.321159 -0.9723,-5.144817 C 271.03241,44.820437 305.69192,22 325.40327,22 c 3.64367,0 5.23428,0.546646 7.14218,2.454545 4.30079,4.300783 2.91548,10.69208 -3.97845,18.355192 -3.2388,3.600159 -3.42054,4.293231 -7.44343,28.385218 C 318.85561,84.77718 317,96.736208 317,97.770573 c 0,1.80167 0.657,1.763024 15.64178,-0.920071 8.60298,-1.540403 15.79474,-2.953688 15.98168,-3.140632 0.18695,-0.186945 1.99495,-7.735643 4.01779,-16.774885 2.02284,-9.039242 4.0289,-16.835297 4.4579,-17.324567 0.43197,-0.492651 6.4421,2.25397 13.4696,6.155594 l 12.68959,7.045176 2.12083,-2.41978 2.12083,-2.419779 41.8847,-2.033197 c 23.03659,-1.118259 42.50627,-1.899375 43.26596,-1.735815 0.7597,0.163561 -4.48398,4.751826 -11.6526,10.196145 -7.16863,5.44432 -12.91331,10.01236 -12.76596,10.151201 C 448.37944,84.688804 451.875,84.21632 456,83.5 c 4.125,-0.71632 7.59497,-1.214394 7.71104,-1.10683 0.11607,0.107563 -0.82177,7.038103 -2.08409,15.4012 -1.26232,8.3631 -2.00677,15.20563 -1.65434,15.20563 0.35244,0 16.81309,-5.81469 36.57923,-12.92153 19.76614,-7.106839 36.08068,-12.779284 36.25453,-12.605433 C 532.98022,87.646888 530.59235,92.834021 527.5,99 c -3.09235,6.16598 -5.454,11.37934 -5.24809,11.58524 0.2059,0.2059 10.02096,2.4608 21.81123,5.01089 11.79027,2.55008 21.81051,4.98032 22.2672,5.40053 0.45668,0.42021 -1.95672,7.23036 -5.36312,15.13368 -6.26616,14.53834 -6.68905,16.55605 -5.43763,25.94397 0.55498,4.16338 0.94037,4.69228 4.29008,5.88757 2.02418,0.72229 4.78347,1.72468 6.13175,2.22752 l 2.45142,0.91426 -2.81755,2.24663 -2.81755,2.24664 3.1001,6.14127 c 2.9782,5.89977 3.22853,6.12262 6.36613,5.66722 7.16584,-1.04009 19.29197,-2.10917 19.7134,-1.73801 0.24606,0.2167 -3.3381,4.19925 -7.96479,8.8501 l -8.41216,8.45609 2.61673,5.2632 2.61674,5.2632 21.42651,11.26432 c 20.46468,10.75867 26.47018,14.24957 24.2696,14.10752 -0.55,-0.0355 -40.50463,-5.99811 -88.78806,-13.25024 z m 62.20473,4.02025 c -0.22917,-0.19699 -21.1078,-11.55503 -46.39696,-25.2401 -25.28916,-13.68507 -45.19798,-25.03261 -44.24182,-25.21675 0.95617,-0.18414 7.85349,0.40521 15.3274,1.30966 7.47391,0.90445 13.72805,1.50066 13.8981,1.3249 0.62592,-0.64694 22.55936,-58.08985 22.28286,-58.35801 -0.15744,-0.1527 -9.83802,-2.42332 -21.51241,-5.04584 -11.67439,-2.62251 -21.72416,-5.07599 -22.33282,-5.45216 -0.75432,-0.4662 -0.13936,-2.95706 1.93161,-7.82375 1.67104,-3.92689 2.66398,-7.1398 2.20654,-7.1398 -1.61653,0 -45.59612,15.18704 -46.751,16.14406 -0.6445,0.53409 -1.47156,2.74517 -1.8379,4.91351 -0.36633,2.16834 -1.03286,3.94243 -1.48117,3.94243 -0.44831,0 -2.09626,-1.57012 -3.66211,-3.48916 l -2.84699,-3.48916 -5.32072,1.58511 c -2.92639,0.87181 -5.47657,1.42926 -5.66705,1.23877 -0.19049,-0.19049 0.69446,-7.32117 1.96656,-15.84595 1.2721,-8.524786 2.17061,-15.651275 1.99669,-15.836643 -0.17392,-0.185369 -5.32058,0.433604 -11.43702,1.375495 -6.11644,0.94189 -11.31172,1.521612 -11.54506,1.28827 -0.23334,-0.233342 4.95791,-4.628469 11.53612,-9.766948 C 460.51383,68.745558 460.91969,68.314411 456.70105,68.723259 446.13558,69.747209 395.63786,74 394.04493,74 c -1.20893,0 -3.47202,2.216567 -6.12595,6 -2.31482,3.3 -4.40375,6 -4.64207,6 -0.23833,0 -0.28563,-1.659923 -0.10511,-3.688718 l 0.3282,-3.688717 -11.72971,-6.743511 -11.7297,-6.74351 -0.98682,3.682228 c -0.54274,2.025225 -2.38862,9.626065 -4.10194,16.890755 -2.29438,9.72847 -3.55469,13.329192 -4.78348,13.666512 -4.2518,1.167181 -38.18629,5.940351 -38.68523,5.441411 -0.30997,-0.30997 1.71548,-12.384515 4.50101,-26.832323 2.78552,-14.447808 4.94113,-26.385641 4.79023,-26.528518 -0.61424,-0.581587 -32.04305,17.279464 -32.74287,18.607833 -0.41625,0.790107 -2.03391,11.231093 -3.5948,23.202191 -1.56089,11.971097 -3.12195,22.225107 -3.46902,22.786677 -0.34707,0.56158 -6.18867,1.96165 -12.98132,3.11128 -9.43033,1.59604 -12.77691,1.82379 -14.15475,0.96332 C 252.83915,119.50711 250.51204,119 248.66026,119 c -1.85178,0 -6.13289,-0.28911 -9.51357,-0.64246 C 233.68303,117.78648 233,117.47156 233,115.52355 c 0,-1.5059 -2.8128,-4.66809 -8.99077,-10.10754 C 219.0643,101.0622 215.02564,97.275 215.03442,97 c 0.009,-0.275 6.03647,-8.6 13.39487,-18.5 7.35839,-9.9 13.2742,-18.11036 13.14623,-18.245245 -0.12797,-0.134885 -12.57232,6.468859 -27.6541,14.674985 L 186.5,89.849971 120.45607,154.67499 c -36.324159,35.65375 -65.799159,64.93485 -65.499999,65.06911 0.299161,0.13425 32.252126,-13.47825 71.006589,-30.25 C 164.71712,172.72234 196.77962,159 197.21266,159 197.6457,159 198,159.675 198,160.5 c 0,0.825 0.7875,1.51912 1.75,1.54248 0.9625,0.0234 10.75,0.85735 21.75,1.85329 11,0.99594 20.3375,1.62526 20.75,1.3985 0.4125,-0.22677 0.75,-1.51075 0.75,-2.85329 0,-2.10166 1.96143,-3.7418 2.02224,-1.69098 0.0122,0.4125 0.83846,1.81129 1.83608,3.10842 l 1.81384,2.35842 15.6842,-3.28225 15.68419,-3.28224 7.98875,3.29832 7.98875,3.29832 20.74097,-2.13893 c 11.40754,-1.1764 21.67214,-2.13243 22.81022,-2.12449 1.97916,0.0138 2.03191,0.32707 1.21157,7.19562 -0.47172,3.94965 -0.72788,7.7081 -0.56924,8.35211 0.19723,0.80066 4.92889,-0.1262 14.96383,-2.93119 8.07146,-2.25616 14.89085,-4.32711 15.15419,-4.60211 0.26334,-0.275 1.25628,-6.8 2.20653,-14.5 0.95025,-7.7 1.85662,-14.15075 2.01414,-14.335 0.20963,-0.24519 58.5555,48.79225 75.62044,63.55604 1.07825,0.93284 27.14242,5.63614 73.5,13.26312 66.76931,10.98521 77.34473,12.60215 76.24597,11.65769 z m -89.26826,-18.27832 -57.85159,-9.38755 -30.14841,-25.21217 c -16.58163,-13.86669 -34.58517,-28.96203 -40.00787,-33.5452 -5.4227,-4.58317 -10.0234,-8.16908 -10.22378,-7.9687 -0.20038,0.20038 -1.53771,7.53468 -2.97185,16.29844 -1.43413,8.76376 -3.05571,16.21111 -3.60352,16.54967 -1.90826,1.17938 -21.08058,5.99613 -21.63999,5.43672 -0.50335,-0.50336 16.63969,-100.517157 17.37948,-101.393201 0.16649,-0.197153 4.3789,1.974165 9.36091,4.825152 5.79293,3.315039 9.051,5.787357 9.03822,6.858461 -0.011,0.921166 -0.64399,5.499848 -1.40664,10.174848 -0.76266,4.675 -1.28278,8.60838 -1.15583,8.74085 0.12696,0.13247 3.9309,-4.898882 8.45322,-11.180775 6.24016,-8.668138 8.87412,-11.548567 10.92581,-11.948194 4.91578,-0.95749 44.12265,-4.775051 45.60181,-4.440235 C 443.19622,75.352241 431.08009,85.175 415.47365,97 c -15.60643,11.825 -28.2682,21.88776 -28.13726,22.36168 0.13093,0.47393 41.26709,23.19893 91.41369,50.5 79.17762,43.10631 94.33474,51.65022 90.49992,51.01386 -0.4125,-0.0685 -26.78322,-4.34885 -58.60159,-9.51201 z M 129.48579,152.01421 186.465,95.028428 207.77466,82.88971 C 219.49498,76.213415 229.24291,70.919518 229.43675,71.125496 229.63058,71.331473 218.32672,85.225 204.31706,102 c -14.00965,16.775 -26.89946,32.28147 -28.644,34.45882 l -3.1719,3.95882 16.89484,-8.73007 c 9.29216,-4.80154 17.08595,-8.53895 17.31954,-8.30536 0.45528,0.45528 -13.44686,31.54598 -14.74142,32.96767 C 191.21457,157.18402 74.204457,209 73.080362,209 c -0.31558,0 25.066861,-25.6436 56.405428,-56.98579 z M 513,171.83467 c -10.175,-2.21854 -18.83431,-4.34574 -19.24291,-4.7271 -0.68377,-0.63819 18.4978,-47.62769 20.15796,-49.38135 0.53812,-0.56844 35.98197,6.76116 41.28836,8.53821 0.38688,0.12957 -3.92013,11.26057 -9.57112,24.73557 -8.1297,19.38557 -10.67719,24.53845 -12.20341,24.6842 C 532.368,175.7855 523.175,174.05322 513,171.83467 Z m 14.98793,-24.644 c 4.51884,-10.73331 6.46395,-16.45593 5.68924,-16.73812 -0.64744,-0.23583 -2.24926,-0.54663 -3.55958,-0.69067 -2.18767,-0.24047 -2.94942,1.0786 -9.31875,16.13662 -7.26814,17.18295 -7.41123,18.46852 -1.98808,17.86055 1.97649,-0.22158 3.30402,-2.61828 9.17717,-16.56838 z M 478.16357,164.774 c -6.18634,-4.41425 -7.82495,-6.24162 -10.96822,-12.23177 L 463.5,145.5 l -0.5,4.22193 -0.5,4.22193 -6.68028,-4.91563 c -6.29673,-4.63339 -6.71604,-5.19159 -7.30298,-9.72193 -0.34248,-2.64346 -0.85467,-6.44208 -1.1382,-8.44137 l -0.5155,-3.63507 6.26265,-2.11493 C 456.57015,123.95172 459.88581,123 460.49383,123 c 0.60802,0 3.93604,4.0846 7.39561,9.07688 3.45957,4.99229 6.51369,8.85332 6.78694,8.58008 0.27324,-0.27325 1.58534,-5.52987 2.91578,-11.68138 1.33043,-6.15152 2.65966,-11.57401 2.95383,-12.04999 0.60897,-0.98535 32.43466,-11.27827 33.03039,-10.68254 0.40889,0.40888 -26.34214,61.72583 -27.48039,62.98873 -0.36275,0.40247 -3.93234,-1.60352 -7.93242,-4.45778 z m -247.48473,-2.68964 c -5.04003,-0.43177 -7.07667,-1.04131 -7.79968,-2.33435 -0.88626,-1.58497 -1.24536,-1.612 -3.80832,-0.28664 -2.19143,1.13323 -4.60527,1.29559 -10.70032,0.71972 -4.32878,-0.409 -7.82152,-1.18001 -7.76163,-1.71336 0.32618,-2.90473 14.79813,-53.12395 15.54411,-53.93973 0.55014,-0.60162 3.19683,1.33983 6.96917,5.11217 l 6.08217,6.08217 -5.10217,17.91687 C 221.29598,143.49549 219,151.89326 219,152.30293 c 0,0.40967 1.63843,-0.0957 3.64097,-1.12308 3.52956,-1.81077 3.75472,-2.27125 7.35888,-15.04943 2.04485,-7.24983 3.89391,-13.31618 4.10903,-13.48077 0.67805,-0.51881 14.70308,0.82898 15.34913,1.47503 0.88674,0.88674 -9.76103,38.17741 -10.95801,38.37716 -0.55,0.0918 -4.06952,-0.0961 -7.82116,-0.41748 z m 18.50922,-4.04387 C 247.98463,156.41276 247,154.64827 247,154.11939 c 0,-1.59178 11.03102,-25.53365 12.31173,-26.72153 0.65355,-0.60618 6.58827,-1.88575 13.18827,-2.84349 6.6,-0.95775 12.06404,-1.81178 12.14232,-1.89786 0.0783,-0.0861 1.32089,-10.05651 2.76137,-22.15651 1.44048,-12.1 2.85036,-23.41469 3.13306,-25.143755 0.46169,-2.82376 1.79439,-3.873436 13.09291,-10.312393 6.91839,-3.94275 12.76135,-6.986178 12.98435,-6.763173 0.40648,0.406483 -20.46651,101.905151 -21.08346,102.522101 -0.63228,0.63228 -12.34576,-5.74842 -12.74356,-6.94182 -0.27811,-0.83431 -1.30804,-0.56622 -3.34443,0.87057 -1.92863,1.36076 -7.09394,2.79843 -14.99043,4.17231 C 257.82579,160.05673 252.17292,161 251.89018,161 c -0.28273,0 -1.49869,-1.33178 -2.70212,-2.95951 z m 24.1354,-13.97337 c 1.93784,-0.73677 2.53521,-1.78789 2.84153,-5 0.30604,-3.20917 0.0534,-4.06712 -1.19769,-4.06712 -1.0228,0 -2.15305,1.77461 -3.18449,5 -0.87941,2.75 -1.4446,5 -1.25597,5 0.18863,0 1.44711,-0.4198 2.79662,-0.93288 z M 301.56054,157.25 c 0.32129,-2.0625 2.01411,-13.65 3.76181,-25.75 l 3.17765,-22 20.78624,-2.38043 c 11.43243,-1.30923 21.04826,-2.1184 21.36851,-1.79816 0.6831,0.68311 -6.18757,49.54475 -7.09422,50.45139 -0.54063,0.54063 -36.23241,5.07363 -40.82235,5.1846 -1.47735,0.0357 -1.66749,-0.56288 -1.17764,-3.7074 z m 25.54392,-8.10535 c 0.85776,-0.9148 5.21948,-33.15405 4.57295,-33.80058 C 330.89,114.55667 325,116.01672 325,116.99931 c 0,1.36761 -4.0055,29.2924 -4.56698,31.83921 -0.48039,2.17901 -0.29106,2.29119 2.77571,1.64465 1.8102,-0.38163 3.56328,-0.98397 3.89573,-1.33852 z m 100.29591,-10.36325 -10.09962,-6.03457 1.27185,-6.09475 c 0.69952,-3.3521 1.09345,-6.38341 0.87539,-6.73623 -0.21806,-0.35283 -2.44465,-1.21496 -4.94799,-1.91585 -4.0391,-1.13088 -7.01899,-3 -4.78282,-3 0.45938,0 8.64282,-1.36812 18.18543,-3.04026 9.54261,-1.67215 17.6019,-2.78856 17.90953,-2.48093 0.69977,0.69977 -6.88488,35.55509 -7.70953,35.42918 -0.33143,-0.0506 -5.14744,-2.80758 -10.70224,-6.12659 z m -3.571,-32.28536 c -0.53117,-0.53117 0.77154,-10.430284 1.4637,-11.122448 0.58676,-0.586754 24.62244,-4.124751 25.05862,-3.68857 0.58354,0.583541 -1.45131,9.651158 -2.44359,10.889048 -0.47353,0.59073 -5.25907,1.62985 -10.63453,2.30915 -5.37546,0.67929 -10.48112,1.43841 -11.3459,1.68693 -0.86479,0.24852 -1.80902,0.21517 -2.0983,-0.0741 z M 572.97307,207.75 c -1.06103,-2.3375 -1.93919,-4.925 -1.95147,-5.75 -0.0123,-0.825 2.34034,-3.64392 5.22804,-6.26427 l 5.25036,-4.76427 -8.06282,0.62706 -8.06281,0.62707 -2.81187,-6.26568 c -3.13913,-6.99489 -3.60125,-6.80627 -5.6106,2.29009 -1.20601,5.45958 -1.42627,5.75355 -4.36103,5.82029 -7.62369,0.17336 -6.73028,1.28816 7.71206,9.62312 7.80839,4.50638 14.28757,8.21888 14.39818,8.25 0.11061,0.0311 -0.66701,-1.85591 -1.72804,-4.19341 z m -19.77403,-23.675 -0.42857,-5.925 5.36476,-2.77423 5.36477,-2.77424 -4.5,-0.89747 c -6.87344,-1.37083 -6.99906,-1.45005 -7.01365,-4.42268 -0.008,-1.52976 -0.30106,-3.85529 -0.65232,-5.16784 -0.52107,-1.94704 -1.22914,-0.75017 -3.84543,6.5 C 542.62741,182.08466 542.64672,182 544.43521,182 c 0.8635,0 3.19619,1.8 5.18375,4 1.98757,2.2 3.70262,4 3.81121,4 0.1086,0 0.005,-2.66625 -0.23113,-5.925 z m -427.8862,-47.80899 c 2.09706,-1.30374 4.61915,-2.23444 5.60465,-2.06822 1.10608,0.18655 5.92429,-3.33346 12.58996,-9.19779 l 10.79816,-9.5 -7.40281,-0.78044 c -14.13808,-1.49049 -12.88017,-0.6921 -17.86227,-11.33728 l -4.45948,-9.528498 -2.84816,9.162108 -2.84817,9.16212 -9.69236,-0.64026 c -8.02735,-0.53027 -9.426341,-0.41672 -8.14381,0.66099 0.8517,0.7157 4.3392,3.46506 7.75,6.10971 3.4108,2.64464 6.20145,5.19967 6.20145,5.67783 0,0.47817 -1.12386,5.06437 -2.49748,10.19156 -1.37361,5.12719 -2.49861,9.69269 -2.5,10.14555 -0.002,0.78454 7.10217,-2.95439 15.31032,-8.05738 z M 295.94081,59.929536 c 7.14384,-2.510858 20.00769,-10.244177 26.11856,-15.701608 2.63097,-2.349639 5.764,-6.297331 6.96228,-8.772648 2.03254,-4.198665 2.07135,-4.664404 0.57852,-6.942744 -4.05334,-6.186182 -9.50419,-5.754094 -25.10017,1.989685 -13.09331,6.501144 -22.50021,13.376311 -26.54755,19.402641 -3.68839,5.491885 -3.74007,8.32954 -0.20245,11.116258 2.3178,1.825819 3.52757,2.06344 7.69753,1.511933 2.72115,-0.35989 7.44312,-1.531473 10.49328,-2.603517 z M 292,51.091611 c 0,-1.710092 8.37828,-8.374943 13.37999,-10.643662 10.63202,-4.82257 14.26358,-4.041821 6.37001,1.369487 C 304.29562,46.927667 292,52.701423 292,51.091611 Z"
       id="path1" />
  </g>
</svg>

